<?xml version="1.0" encoding="UTF-8" standalone="no"?>
<svg
   xmlns="http://www.w3.org/2000/svg"
   version="1.1"
   width="32"
   height="32"
   viewBox="0 0 32 32">
  <g
     id="bugme">
    <path
       d="m 30.222,8.889 -4.9777,0 C 24.355425,7.4668 23.288775,6.222375 22.04435,5.3335 L 24.88875,2.4891 22.3999,2.5e-4 18.48885,3.9113 C 17.77775,3.733525 16.888875,3.55575 16,3.55575 c -0.888875,0 -1.77775,0.177775 -2.48885,0.35555 L 9.6001,2.5e-4 7.11125,2.4891 9.95565,5.3335 C 8.711225,6.222375 7.644575,7.4668 6.7557,8.889 l -4.9777,0 0,3.5555 3.733275,0 C 5.3335,12.977825 5.3335,13.688925 5.3335,14.22225 l 0,1.77775 -3.5555,0 0,3.5555 3.5555,0 0,1.77775 c 0,0.533325 0,1.244425 0.177775,1.77775 l -3.733275,0 0,3.5555 4.9777,0 c 1.77775,3.19995 5.33325,5.33325 9.2443,5.33325 3.91105,0 7.46655,-2.1333 9.2443,-5.33325 l 4.9777,0 0,-3.5555 -3.733275,0 C 26.6665,22.577675 26.6665,21.866575 26.6665,21.33325 l 0,-1.77775 3.5555,0 0,-3.5555 -3.5555,0 0,-1.77775 c 0,-0.533325 0,-1.244425 -0.177775,-1.77775 l 3.733275,0 z m -11.815531,18.464574 -4.812938,0 0,-4.085823 4.812938,0 z m -0.628719,-6.757452 -3.5555,0 -1.77775,-13.101292 7.111,0 z"
       style="fill:#cb4b16;fill-opacity:1" />
  </g>
</svg>
